<?xml version="1.0" encoding="UTF-8" standalone="no"?>
<svg width="186px" height="28px" viewBox="0 0 186 28" version="1.1" xmlns="http://www.w3.org/2000/svg" xmlns:xlink="http://www.w3.org/1999/xlink" xmlns:sketch="http://www.bohemiancoding.com/sketch/ns">
    <!-- Generator: Sketch 3.2.2 (9983) - http://www.bohemiancoding.com/sketch -->
    <title>logo</title>
    <desc>Created with Sketch.</desc>
    <defs></defs>
    <g id="Page-1" stroke="none" stroke-width="1" fill="none" fill-rule="evenodd" sketch:type="MSPage">
        <g id="logo" sketch:type="MSLayerGroup" fill="#000000">
            <g id="Page-1" sketch:type="MSShapeGroup">
                <g id="Artboard-1">
                    <g id="Group">
                        <path d="M13.5710204,0.44375 C6.31408163,0.44375 0.432244898,6.449375 0.432244898,13.855625 C0.432244898,21.263125 6.31469388,27.26875 13.5710204,27.26875 C20.8285714,27.26875 26.7091837,21.263125 26.7091837,13.855625 C26.7097959,6.44875 20.8273469,0.44375 13.5710204,0.44375 L13.5710204,0.44375 L13.5710204,0.44375 Z M4.40938776,15.19125 C3.68755102,15.19125 3.10102041,14.588125 3.10102041,13.855625 C3.10102041,13.12375 3.69122449,12.521875 4.40938776,12.521875 C5.13061224,12.521875 5.71653061,13.12375 5.71653061,13.855625 C5.71714286,14.588125 5.12693878,15.19125 4.40938776,15.19125 L4.40938776,15.19125 L4.40938776,15.19125 Z M9.07285714,15.19125 C8.35163265,15.19125 7.76510204,14.588125 7.76510204,13.855625 C7.76510204,13.12375 8.35163265,12.521875 9.07285714,12.521875 C9.79408163,12.521875 10.3806122,13.12375 10.3806122,13.855625 C10.3806122,14.588125 9.79408163,15.19125 9.07285714,15.19125 L9.07285714,15.19125 L9.07285714,15.19125 Z M17.88,15.19125 C17.1581633,15.19125 16.5728571,14.588125 16.5728571,13.855625 C16.5728571,13.12375 17.1630612,12.521875 17.88,12.521875 C18.597551,12.521875 19.1877551,13.12 19.1877551,13.855625 C19.1914286,14.593125 18.6018367,15.19125 17.88,15.19125 L17.88,15.19125 L17.88,15.19125 Z M22.5434694,15.19125 C21.8222449,15.19125 21.2357143,14.588125 21.2357143,13.855625 C21.2357143,13.12375 21.8259184,12.521875 22.5434694,12.521875 C23.2610204,12.521875 23.8555102,13.12 23.8555102,13.855625 C23.8555102,14.593125 23.2653061,15.19125 22.5434694,15.19125 L22.5434694,15.19125 L22.5434694,15.19125 Z" id="Shape"></path>
                        <path d="M52.9683673,23.035625 L48.8173469,23.035625 L48.8173469,12.769375 L44.4006122,18.188125 L43.7987755,18.188125 L39.3857143,12.769375 L39.3857143,23.035625 L35.2353061,23.035625 L35.2353061,6.24 L38.8806122,6.24 L44.0883673,12.615625 L49.3732653,6.24 L52.9683673,6.24 L52.9683673,23.035625 L52.9683673,23.035625 Z" id="Shape"></path>
                        <path d="M70.0959184,2.986875 C70.0959184,4.07 69.2240816,4.96 68.1673469,4.96 C67.1081633,4.96 66.2393878,4.07 66.2393878,2.986875 C66.2393878,1.904375 67.107551,1.01875 68.1673469,1.01875 C69.2240816,1.0225 70.0959184,1.904375 70.0959184,2.986875" id="Shape"></path>
                        <path d="M63.2185714,2.986875 C63.2185714,4.07 62.3467347,4.96 61.2906122,4.96 C60.2259184,4.96 59.3614286,4.07 59.3614286,2.986875 C59.3614286,1.904375 60.2259184,1.01875 61.2906122,1.01875 C62.3497959,1.0225 63.2185714,1.904375 63.2185714,2.986875" id="Shape"></path>
                        <path d="M72.9893878,15.38 C72.9893878,16.706875 72.9673469,18.801875 71.5671429,20.54625 C69.8761224,22.614375 67.1767347,23.25625 64.6414286,23.25625 C63.3612245,23.25625 59.9387755,23.205 57.7206122,20.27875 C57.0728571,19.38875 56.4673469,18.210625 56.4673469,15.501875 L56.4673469,6.24375 L60.6128571,6.24375 L60.6128571,14.565 C60.6128571,15.256875 60.6128571,16.2425 60.9036735,17.17625 C61.4308163,19.05 63.0985714,19.885 64.7155102,19.885 C67.1032653,19.885 68.2138776,18.286875 68.5493878,17.423125 C68.8402041,16.681875 68.8402041,16.04125 68.8402041,14.566875 L68.8402041,6.24375 L72.9893878,6.24375 L72.9893878,15.38 L72.9893878,15.38 Z" id="Shape"></path>
                        <path d="M89.9467347,2.986875 C89.9467347,4.07 89.0785714,4.96 88.0193878,4.96 C86.9589796,4.96 86.0908163,4.07 86.0908163,2.986875 C86.0908163,1.904375 86.9589796,1.01875 88.0193878,1.01875 C89.0785714,1.01875 89.9467347,1.904375 89.9467347,2.986875" id="Shape"></path>
                        <path d="M83.0687755,2.986875 C83.0687755,4.07 82.2006122,4.96 81.1402041,4.96 C80.0791837,4.96 79.2110204,4.07 79.2110204,2.986875 C79.2110204,1.904375 80.0791837,1.01875 81.1402041,1.01875 C82.204898,1.0225 83.0687755,1.904375 83.0687755,2.986875" id="Shape"></path>
                        <path d="M92.8438776,15.38 C92.8438776,16.706875 92.8206122,18.801875 91.4204082,20.54625 C89.7306122,22.614375 87.0312245,23.25625 84.4959184,23.25625 C83.2144898,23.25625 79.7926531,23.205 77.5744898,20.27875 C76.9261224,19.38875 76.32,18.210625 76.32,15.501875 L76.32,6.24375 L80.4710204,6.24375 L80.4710204,14.565 C80.4710204,15.256875 80.4710204,16.2425 80.7606122,17.17625 C81.2889796,19.05 82.954898,19.885 84.5736735,19.885 C86.9595918,19.885 88.0720408,18.286875 88.407551,17.423125 C88.6971429,16.681875 88.6971429,16.04125 88.6971429,14.566875 L88.6971429,6.24375 L92.847551,6.24375 L92.847551,15.380625 L92.8438776,15.380625 L92.8438776,15.38 L92.8438776,15.38 Z" id="Shape"></path>
                        <path d="M100.490204,9.291875 L100.490204,13.135 L102.203878,13.135 C103.260612,13.08 103.530612,13.08 103.962857,12.84 C104.563469,12.51625 104.852449,11.9025 104.852449,11.213125 C104.852449,9.29125 103.021837,9.29125 102.562653,9.29125 L100.490204,9.291875 L100.490204,9.291875 Z M102.661837,6.24 C104.156939,6.24 105.650816,6.24 106.978163,7.074375 C107.850612,7.665625 109.122857,9.04375 109.122857,11.035625 C109.122857,13.84 107.00449,14.82875 106.305306,15.175625 C107.491224,15.76625 108.31102,17.463125 108.666122,18.32625 C109.121633,19.281875 109.826939,20.863125 110.259184,21.81875 L110.81449,23.03 L106.305306,23.03 C105.942857,22.2925 104.519388,18.97 104.179592,18.30125 C103.072653,16.185625 102.252245,16.185625 101.089592,16.185625 L100.492041,16.185625 L100.492041,23.03 L96.3410204,23.03 L96.3410204,6.2375 L102.66,6.2375 L102.661837,6.24 L102.661837,6.24 Z" id="Shape"></path>
                        <rect id="Rectangle-path" x="112.722245" y="6.24" width="4.14734694" height="16.795625"></rect>
                        <path d="M133.082449,23.035625 L120.537551,23.035625 L120.537551,6.24 L124.684286,6.24 L124.684286,19.909375 L133.082449,19.909375 L133.082449,23.035625 L133.082449,23.035625 Z" id="Shape"></path>
                        <path d="M147.506327,23.035625 L135.369796,23.035625 L135.369796,6.24 L147.336735,6.24 L147.336735,9.366875 L139.525102,9.366875 L139.525102,12.769375 L146.973673,12.769375 L146.973673,15.92 L139.525102,15.92 L139.525102,19.955625 L147.506327,19.955625 L147.506327,23.035625 L147.506327,23.035625 Z" id="Shape"></path>
                        <path d="M167.068776,23.035625 L162.944082,23.035625 L162.944082,16.239375 L154.792653,16.239375 L154.792653,23.035625 L150.637959,23.035625 L150.637959,6.24 L154.792653,6.24 L154.792653,12.985625 L162.944082,12.985625 L162.944082,6.24 L167.068776,6.24 L167.068776,23.035625 L167.068776,23.035625 Z" id="Shape"></path>
                        <path d="M185.595918,9.394375 L179.65898,9.394375 L179.65898,23.035625 L175.490204,23.035625 L175.490204,9.394375 L169.533061,9.394375 L169.533061,6.24 L185.595918,6.24 L185.595918,9.394375 L185.595918,9.394375 Z" id="Shape"></path>
                    </g>
                </g>
            </g>
        </g>
    </g>
</svg>