<?xml version="1.0" encoding="UTF-8" standalone="no"?>
<svg width="300px" height="30px" viewBox="0 0 300 30" version="1.1" xmlns="http://www.w3.org/2000/svg" xmlns:xlink="http://www.w3.org/1999/xlink" xmlns:sketch="http://www.bohemiancoding.com/sketch/ns">
    <!-- Generator: Sketch 3.2.2 (9983) - http://www.bohemiancoding.com/sketch -->
    <title>Group</title>
    <desc>Created with Sketch.</desc>
    <defs></defs>
    <g id="Page-1" stroke="none" stroke-width="1" fill="none" fill-rule="evenodd" sketch:type="MSPage">
        <g id="Artboard-1" sketch:type="MSArtboardGroup" transform="translate(-38.000000, -39.000000)" fill="#000000">
            <g id="Group" sketch:type="MSLayerGroup" transform="translate(38.000000, 39.000000)">
                <path d="M13.5710204,1.44375 C6.31408163,1.44375 0.432244898,7.449375 0.432244898,14.855625 C0.432244898,22.263125 6.31469388,28.26875 13.5710204,28.26875 C20.8285714,28.26875 26.7091837,22.263125 26.7091837,14.855625 C26.7097959,7.44875 20.8273469,1.44375 13.5710204,1.44375 L13.5710204,1.44375 Z M4.40938776,16.19125 C3.68755102,16.19125 3.10102041,15.588125 3.10102041,14.855625 C3.10102041,14.12375 3.69122449,13.521875 4.40938776,13.521875 C5.13061224,13.521875 5.71653061,14.12375 5.71653061,14.855625 C5.71714286,15.588125 5.12693878,16.19125 4.40938776,16.19125 L4.40938776,16.19125 Z M9.07285714,16.19125 C8.35163265,16.19125 7.76510204,15.588125 7.76510204,14.855625 C7.76510204,14.12375 8.35163265,13.521875 9.07285714,13.521875 C9.79408163,13.521875 10.3806122,14.12375 10.3806122,14.855625 C10.3806122,15.588125 9.79408163,16.19125 9.07285714,16.19125 L9.07285714,16.19125 Z M17.88,16.19125 C17.1581633,16.19125 16.5728571,15.588125 16.5728571,14.855625 C16.5728571,14.12375 17.1630612,13.521875 17.88,13.521875 C18.597551,13.521875 19.1877551,14.12 19.1877551,14.855625 C19.1914286,15.593125 18.6018367,16.19125 17.88,16.19125 L17.88,16.19125 Z M22.5434694,16.19125 C21.8222449,16.19125 21.2357143,15.588125 21.2357143,14.855625 C21.2357143,14.12375 21.8259184,13.521875 22.5434694,13.521875 C23.2610204,13.521875 23.8555102,14.12 23.8555102,14.855625 C23.8555102,15.593125 23.2653061,16.19125 22.5434694,16.19125 L22.5434694,16.19125 Z" id="Shape" sketch:type="MSShapeGroup"></path>
                <path d="M52.9683673,24.035625 L48.8173469,24.035625 L48.8173469,13.769375 L44.4006122,19.188125 L43.7987755,19.188125 L39.3857143,13.769375 L39.3857143,24.035625 L35.2353061,24.035625 L35.2353061,7.24 L38.8806122,7.24 L44.0883673,13.615625 L49.3732653,7.24 L52.9683673,7.24 L52.9683673,24.035625 Z" id="Shape" sketch:type="MSShapeGroup"></path>
                <path d="M70.0959184,3.986875 C70.0959184,5.07 69.2240816,5.96 68.1673469,5.96 C67.1081633,5.96 66.2393878,5.07 66.2393878,3.986875 C66.2393878,2.904375 67.107551,2.01875 68.1673469,2.01875 C69.2240816,2.0225 70.0959184,2.904375 70.0959184,3.986875" id="Shape" sketch:type="MSShapeGroup"></path>
                <path d="M63.2185714,3.986875 C63.2185714,5.07 62.3467347,5.96 61.2906122,5.96 C60.2259184,5.96 59.3614286,5.07 59.3614286,3.986875 C59.3614286,2.904375 60.2259184,2.01875 61.2906122,2.01875 C62.3497959,2.0225 63.2185714,2.904375 63.2185714,3.986875" id="Shape" sketch:type="MSShapeGroup"></path>
                <path d="M72.9893878,16.38 C72.9893878,17.706875 72.9673469,19.801875 71.5671429,21.54625 C69.8761224,23.614375 67.1767347,24.25625 64.6414286,24.25625 C63.3612245,24.25625 59.9387755,24.205 57.7206122,21.27875 C57.0728571,20.38875 56.4673469,19.210625 56.4673469,16.501875 L56.4673469,7.24375 L60.6128571,7.24375 L60.6128571,15.565 C60.6128571,16.256875 60.6128571,17.2425 60.9036735,18.17625 C61.4308163,20.05 63.0985714,20.885 64.7155102,20.885 C67.1032653,20.885 68.2138776,19.286875 68.5493878,18.423125 C68.8402041,17.681875 68.8402041,17.04125 68.8402041,15.566875 L68.8402041,7.24375 L72.9893878,7.24375 L72.9893878,16.38 L72.9893878,16.38 Z" id="Shape" sketch:type="MSShapeGroup"></path>
                <path d="M89.9467347,3.986875 C89.9467347,5.07 89.0785714,5.96 88.0193878,5.96 C86.9589796,5.96 86.0908163,5.07 86.0908163,3.986875 C86.0908163,2.904375 86.9589796,2.01875 88.0193878,2.01875 C89.0785714,2.01875 89.9467347,2.904375 89.9467347,3.986875" id="Shape" sketch:type="MSShapeGroup"></path>
                <path d="M83.0687755,3.986875 C83.0687755,5.07 82.2006122,5.96 81.1402041,5.96 C80.0791837,5.96 79.2110204,5.07 79.2110204,3.986875 C79.2110204,2.904375 80.0791837,2.01875 81.1402041,2.01875 C82.204898,2.0225 83.0687755,2.904375 83.0687755,3.986875" id="Shape" sketch:type="MSShapeGroup"></path>
                <path d="M92.8438776,16.38 C92.8438776,17.706875 92.8206122,19.801875 91.4204082,21.54625 C89.7306122,23.614375 87.0312245,24.25625 84.4959184,24.25625 C83.2144898,24.25625 79.7926531,24.205 77.5744898,21.27875 C76.9261224,20.38875 76.32,19.210625 76.32,16.501875 L76.32,7.24375 L80.4710204,7.24375 L80.4710204,15.565 C80.4710204,16.256875 80.4710204,17.2425 80.7606122,18.17625 C81.2889796,20.05 82.954898,20.885 84.5736735,20.885 C86.9595918,20.885 88.0720408,19.286875 88.407551,18.423125 C88.6971429,17.681875 88.6971429,17.04125 88.6971429,15.566875 L88.6971429,7.24375 L92.847551,7.24375 L92.847551,16.380625 L92.8438776,16.380625 L92.8438776,16.38 L92.8438776,16.38 Z" id="Shape" sketch:type="MSShapeGroup"></path>
                <path d="M100.490204,10.291875 L100.490204,14.135 L102.203878,14.135 C103.260612,14.08 103.530612,14.08 103.962857,13.84 C104.563469,13.51625 104.852449,12.9025 104.852449,12.213125 C104.852449,10.29125 103.021837,10.29125 102.562653,10.29125 L100.490204,10.291875 L100.490204,10.291875 Z M102.661837,7.24 C104.156939,7.24 105.650816,7.24 106.978163,8.074375 C107.850612,8.665625 109.122857,10.04375 109.122857,12.035625 C109.122857,14.84 107.00449,15.82875 106.305306,16.175625 C107.491224,16.76625 108.31102,18.463125 108.666122,19.32625 C109.121633,20.281875 109.826939,21.863125 110.259184,22.81875 L110.81449,24.03 L106.305306,24.03 C105.942857,23.2925 104.519388,19.97 104.179592,19.30125 C103.072653,17.185625 102.252245,17.185625 101.089592,17.185625 L100.492041,17.185625 L100.492041,24.03 L96.3410204,24.03 L96.3410204,7.2375 L102.66,7.2375 L102.661837,7.24 L102.661837,7.24 Z" id="Shape" sketch:type="MSShapeGroup"></path>
                <rect id="Rectangle-path" sketch:type="MSShapeGroup" x="112.722245" y="7.24" width="4.14734694" height="16.795625"></rect>
                <path d="M133.082449,24.035625 L120.537551,24.035625 L120.537551,7.24 L124.684286,7.24 L124.684286,20.909375 L133.082449,20.909375 L133.082449,24.035625 Z" id="Shape" sketch:type="MSShapeGroup"></path>
                <path d="M147.506327,24.035625 L135.369796,24.035625 L135.369796,7.24 L147.336735,7.24 L147.336735,10.366875 L139.525102,10.366875 L139.525102,13.769375 L146.973673,13.769375 L146.973673,16.92 L139.525102,16.92 L139.525102,20.955625 L147.506327,20.955625 L147.506327,24.035625 Z" id="Shape" sketch:type="MSShapeGroup"></path>
                <path d="M167.068776,24.035625 L162.944082,24.035625 L162.944082,17.239375 L154.792653,17.239375 L154.792653,24.035625 L150.637959,24.035625 L150.637959,7.24 L154.792653,7.24 L154.792653,13.985625 L162.944082,13.985625 L162.944082,7.24 L167.068776,7.24 L167.068776,24.035625 Z" id="Shape" sketch:type="MSShapeGroup"></path>
                <path d="M185.595918,10.394375 L179.65898,10.394375 L179.65898,24.035625 L175.490204,24.035625 L175.490204,10.394375 L169.533061,10.394375 L169.533061,7.24 L185.595918,7.24 L185.595918,10.394375 Z" id="Shape" sketch:type="MSShapeGroup"></path>
                <path d="M189.150612,29.911875 L200.298367,0.340625 L203.01551,0.340625 L191.827959,29.911875 L189.150612,29.911875 L189.150612,29.911875 Z" id="Shape" sketch:type="MSShapeGroup"></path>
                <g transform="translate(205.714286, 6.875000)" id="Shape" sketch:type="MSShapeGroup">
                    <path d="M0.381428571,17.38125 L3.81,0.8875 L5.58306122,0.25125 L2.03571429,17.38 L0.381428571,17.38 L0.381428571,17.38125 L0.381428571,17.38125 Z"></path>
                    <path d="M11.0491837,17.6025 C10.1859184,17.6025 9.43040816,17.4025 8.78387755,17.003125 C8.1355102,16.6025 7.62428571,16.03625 7.24959184,15.30125 C6.87428571,14.56625 6.65020408,13.670625 6.57734694,12.609375 C6.50571429,11.54875 6.6055102,10.356875 6.87734694,9.03625 C7.14857143,7.73125 7.53979592,6.54875 8.05163265,5.4875 C8.56346939,4.426875 9.1622449,3.525625 9.85040816,2.783125 C10.5373469,2.040625 11.2891837,1.46625 12.1040816,1.058125 C12.9189796,0.65 13.7577551,0.44625 14.6210204,0.44625 C15.4830612,0.44625 16.2306122,0.65 16.8612245,1.058125 C17.492449,1.46625 17.9963265,2.040625 18.3722449,2.783125 C18.7469388,3.525625 18.9716327,4.4275 19.0438776,5.4875 C19.1155102,6.5475 19.0157143,7.730625 18.7444898,9.03625 C18.4732653,10.356875 18.0808163,11.54875 17.5695918,12.609375 C17.0583673,13.67 16.4626531,14.56625 15.7836735,15.30125 C15.1053061,16.03625 14.3614286,16.6025 13.5544898,17.003125 C12.7463265,17.400625 11.9112245,17.6025 11.0491837,17.6025 L11.0491837,17.6025 Z M11.3595918,16.109375 C11.9663265,16.109375 12.5706122,15.945625 13.1693878,15.62 C13.7681633,15.294375 14.3240816,14.824375 14.8353061,14.2125 C15.3471429,13.600625 15.8063265,12.85875 16.2140816,11.985625 C16.6218367,11.1125 16.9371429,10.13 17.1612245,9.03625 C17.3846939,7.959375 17.4771429,6.985 17.4361224,6.1125 C17.3969388,5.24 17.2444898,4.501875 16.9812245,3.898125 C16.7179592,3.294375 16.354898,2.829375 15.8902041,2.503125 C15.4267347,2.1775 14.8916327,2.01375 14.2842857,2.01375 C13.645102,2.01375 13.0212245,2.1775 12.4144898,2.503125 C11.8071429,2.829375 11.2395918,3.295 10.712449,3.898125 C10.1859184,4.50125 9.71755102,5.24 9.31040816,6.1125 C8.90326531,6.985 8.58734694,7.96 8.36387755,9.03625 C8.14040816,10.13 8.04795918,11.1125 8.08836735,11.985625 C8.12755102,12.858125 8.28734694,13.600625 8.56714286,14.2125 C8.84693878,14.824375 9.2222449,15.293125 9.69367347,15.62 C10.1644898,15.945625 10.7204082,16.109375 11.3595918,16.109375 L11.3595918,16.109375 Z"></path>
                    <path d="M20.0369388,17.38125 L23.4655102,0.8875 L25.2385714,0.25125 L21.6912245,17.38 L20.0369388,17.38 L20.0369388,17.38125 L20.0369388,17.38125 Z"></path>
                    <path d="M32.2389796,17.38125 L35.7863265,0.251875 L37.56,0.251875 L34.0120408,17.38125 L32.2389796,17.38125 L32.2389796,17.38125 Z"></path>
                    <path d="M52.5183673,8.768125 C52.2789796,9.958125 51.8834694,11.07625 51.3318367,12.12 C50.7808163,13.165 50.0853061,14.078125 49.2465306,14.860625 C48.4071429,15.644375 47.4397959,16.259375 46.3457143,16.70875 C45.2510204,17.158125 44.0338776,17.38125 42.69,17.38125 L36.6012245,17.38125 L40.1491837,0.251875 L46.2379592,0.251875 C47.6118367,0.251875 48.7585714,0.48 49.677551,0.936875 C50.5965306,1.39375 51.3079592,2.01 51.8112245,2.784375 C52.3138776,3.559375 52.6169388,4.46125 52.7210204,5.48875 C52.8257143,6.51625 52.7589796,7.609375 52.5183673,8.768125 L52.5183673,8.768125 Z M50.6963265,8.7925 C50.9197959,7.731875 50.9718367,6.785625 50.852449,5.953125 C50.7330612,5.12125 50.4569388,4.41625 50.0240816,3.83625 C49.5936735,3.2575 49.0169388,2.816875 48.2993878,2.515 C47.58,2.21375 46.7320408,2.0625 45.7585714,2.0625 L41.5634694,2.0625 L38.7342857,15.57 L42.93,15.57 C43.9855102,15.57 44.9436735,15.4075 45.8063265,15.080625 C46.6695918,14.755625 47.427551,14.298125 48.0838776,13.71125 C48.7383673,13.124375 49.2869388,12.415 49.7271429,11.5825 C50.164898,10.750625 50.49,9.81875 50.6963265,8.7925 L50.6963265,8.7925 Z"></path>
                    <path d="M52.7834694,17.38125 L56.3308163,0.251875 L66.3263265,0.251875 L65.9663265,2.0625 L57.7438776,2.0625 L56.5934694,7.56875 L64.0732653,7.56875 L63.6893878,9.379375 L56.2095918,9.379375 L54.9159184,15.569375 L63.21,15.569375 L62.85,17.379375 L52.7834694,17.379375 L52.7834694,17.38125 L52.7834694,17.38125 Z"></path>
                    <path d="M65.367551,17.38125 L68.914898,0.251875 L78.9116327,0.251875 L78.5516327,2.0625 L70.3285714,2.0625 L69.1781633,7.56875 L76.6573469,7.56875 L76.2740816,9.379375 L68.7942857,9.379375 L67.5,15.569375 L75.7959184,15.569375 L75.4359184,17.379375 L65.367551,17.379375 L65.367551,17.38125 L65.367551,17.38125 Z"></path>
                    <path d="M93.87,8.768125 C93.63,9.958125 93.235102,11.07625 92.6834694,12.12 C92.132449,13.165 91.4369388,14.078125 90.5981633,14.860625 C89.7593878,15.644375 88.7920408,16.259375 87.6979592,16.70875 C86.6026531,17.158125 85.3855102,17.38125 84.0422449,17.38125 L77.9534694,17.38125 L81.5014286,0.251875 L87.5902041,0.251875 C88.9640816,0.251875 90.1108163,0.48 91.0291837,0.936875 C91.9487755,1.39375 92.6595918,2.01 93.1622449,2.784375 C93.6655102,3.559375 93.9685714,4.46125 94.0726531,5.48875 C94.1773469,6.51625 94.11,7.609375 93.87,8.768125 L93.87,8.768125 Z M92.0473469,8.7925 C92.2708163,7.731875 92.3234694,6.785625 92.2040816,5.953125 C92.0840816,5.12125 91.8085714,4.41625 91.3757143,3.83625 C90.9446939,3.2575 90.3685714,2.816875 89.6510204,2.515 C88.9310204,2.21375 88.0836735,2.0625 87.1102041,2.0625 L82.9144898,2.0625 L80.0859184,15.57 L84.2810204,15.57 C85.3365306,15.57 86.2946939,15.4075 87.1579592,15.080625 C88.0206122,14.755625 88.7791837,14.298125 89.434898,13.71125 C90.0906122,13.124375 90.6385714,12.415 91.0781633,11.5825 C91.5171429,10.750625 91.8410204,9.81875 92.0473469,8.7925 L92.0473469,8.7925 Z"></path>
                </g>
            </g>
        </g>
    </g>
</svg>